<?xml version="1.0" encoding="UTF-8"?>
<!-- Created with Inkscape (http://www.inkscape.org/) -->
<svg id="svg5" version="1.1" viewBox="0 0 95.392 275.72" preserveAspectRatio="xMidYMin meet" xml:space="preserve" xmlns="http://www.w3.org/2000/svg"><g id="layer1" transform="translate(-54.864 -26.671)"><path id="path519" d="m104.03 26.748s3.707 5.1108 4.444 8.1014c0.1694 0.68745 0.66865 2.1163-0.0393 2.1237-2.8548 0.02975-3.6719 5.8569-2.7684 6.3433 0 0 0.92912-0.30704 1.3863-0.28148 0.58426 0.03266 1.2653 0.2547 1.5008 0.3536 1.6486 0.69243 2.5937-4.4991 1.1889-5.9631-0.615-0.64097-2.0004-0.54082-2.6644 0.04916-1.5045 1.3366-2.2517 5.1073-1.4116 5.8419 1.5042 1.3152-1.0203 5.6024 0.95908 5.3296 1.6731-0.23054 3.5405-3.4602 2.4953-4.7869-0.827-1.0498-3.0007-1.077-4.0044-0.19466-1.3061 1.1481-3.1166 3.7046-1.967 5.0093 0.85149-0.194 2.5658-0.57709 3.3212 0.20862 1.2952 1.347-4.1833 4.3246-3.3354 3.8892 1.3802-0.70891 2.5289-0.0042 2.8591 0.16351 1.1071 0.5623 1.6026-2.8328 0.78873-3.7705-0.83005-0.95646-2.8649-1.0363-3.7951-0.17697-1.0357 0.95678-0.98034 3.3937-0.57057 4.7429 0.53921 1.7753 3.1462 4.7291 3.1462 4.6505 0-0.07865 1.8494-4.0031 0.84586-5.1066-0.87481-0.96197-2.9663-1.0008-3.8996-0.09547-1.1311 1.0973-1.3913 5.6677 0.069 5.0754 0.45791-0.18572 1.5177-0.71496 3.1372 0.22717 0.32342 0.18816-4.1889 3.0003-3.3668 4.7591 0.55766-0.22935 1.6312-0.70063 3.1059 0.06625 0 0 1.5285-3.4884 0.57156-4.5497-0.85805-0.95163-2.9111-1.1076-3.8376-0.22247-1.0926 1.0438-0.41996 3.0985 0.0556 4.5328 0.60574 1.8268 2.0471 5.3395 2.7406 5.5589 1.3264 0.41973 1.7619-4.0618 0.79114-5.0584-0.90557-0.92959-2.9982-0.91196-3.8932 0.02781-1.0749 1.1287-0.69434 3.9278 0.47107 4.9628 0.52953-0.29092 1.4186-0.55351 2.7854 0.16771 1.7738 0.93599-3.737 3.0508-2.845 4.8471 0.93085-1.2441 2.783-1.101 3.3952-0.74604 0.84447-1.0299 0.62559-3.1141-0.38932-3.9766-0.87769-0.74588-2.4781-0.88134-3.2505-0.0269-1.0263 1.1354-0.48896 3.2056 0.16685 4.5884 0.70359 1.4836 3.7029 3.54 4.8795 3.8319 1.1876 0.29464-0.27246-3.4295-1.181-4.2491-0.87182-0.7865-2.7106-0.50414-3.5039 0.36151-0.80173 0.87486 0.32877 3.1846 1.1844 4.0068 0.69744-0.34418 1.6181-0.5848 3.329-0.26804 1.78 0.32954-3.1558 2.6823-2.4952 4.3677 0.91339-1.065 2.7271-0.50312 3.3046-0.0023 0.96686 0.8384-0.0937-4.1748-0.54173-4.2018-0.11103-0.0067-2.9358-0.64793-3.8098 0.27809-0.84628 0.8967 0.71718 2.738 1.0469 3.9261-1.0228 1.2972 1.2345 3.7346 1.9269 4.5105 0.56041-0.07361 1.0662-0.18975 1.6937-0.29858 1.383-0.23986 0.76544-2.8121-0.0627-3.9453-0.68678-0.93982-2.5702-1.0647-3.4761-0.3337-1.1113 0.89681 0.65095 3.2106 1.5616 4.3106 0.5867 0.70862 2.2273-0.57585 2.6235 0.25442 0.30679 0.64285-0.51134 1.742-1.2236 1.7519-0.62286 0.0087-1.3272-2.3109-1.1165-1.7393 0.56481 1.5325-0.32456-0.62068-0.28345-0.26707 1.2922 11.116-4.87 23.337 0.0165 33.306 0.31069 0.63382 1.1398 1.8526 1.4201 2.5004 0.13681 0.31613-0.0972 1.0288-0.0972 1.0288l0.27529 1.3371-0.4326 2.5956 3.1855-0.47193-3.2642 0.98319-1.4944 9.006 0.0787 0.7079 0.98318 0.47193-0.98537 0.0769 0.5921 6.7267 1.5731-0.90453-1.1405 1.2192 0.47193 0.15731 3.3429-1.8877 0.91893-1.3145s-0.97662-0.84153-1.1063-1.0799c-0.0958-0.17614-0.73793-1.5827-0.16665-1.735 0.60617-0.16154 0.58851 1.1104 0.82587 1.6911 0.14116 0.34536 0.44709 1.1238 0.44709 1.1238l0.65407-1.0844s-0.91647-0.60294-1.1798-1.0618c-0.38646-0.67341-1.1874-1.9794-0.47192-2.281 0.58298-0.24571 0.72295 1.0491 1.0618 1.5731 0.34673 0.53611 0.58991 1.7697 0.58991 1.7697l0.63914-0.78812s-1.0686-0.61201-1.3203-1.1911c-0.33594-0.7728-0.89963-2.4192-0.10541-2.7008 0.71277-0.25273 0.97582 1.1863 1.2585 1.8877 0.24891 0.61773 0.16721 2.0041 0.16721 2.0041l0.97386-1.1063s-1.1177-0.77361-1.3141-1.3941c-0.28097-0.88743-0.59767-2.2936 0.11987-2.6286 0.50334-0.0816 0.81729 0.9276 1.0364 1.6698 0.22054 0.74699 0.15785 2.3529 0.15785 2.3529l0.71959-0.84514s-0.68925-0.90706-0.87744-1.5078c-0.26304-0.83964-1.0081-2.4106-0.15731-2.6349 0.7483-0.19734 0.90057 0.96386 1.1083 1.7093 0.20136 0.72256-0.0736 2.4334-0.0736 2.4334l1.1684-1.3722s-0.8227-0.58251-1.0426-1.1932c-0.27153-0.75397-0.80382-1.9612-0.0199-2.1278 0.55062-0.11708 0.64571 0.94941 0.78655 1.4944 0.15418 0.59667 0.276 1.8266 0.276 1.8266l2.3589-2.7705-5.8599 6.8823-1.573 2.399 2.9888-1.2192s0.76089-1.0085 0.86003-1.7033c0.0715-0.50094 0.19911-1.3108-0.30059-1.3903-0.66078-0.10505-0.88018 0.86083-0.99204 1.5205-0.0909 0.53617 0.4326 1.5731 0.4326 1.5731l1.5289-0.41574s-0.63009-0.39068-0.66367-0.72475c-0.10906-1.085 0.41048-3.0295 1.4944-2.9102 0.61946 0.0682 0.48745 0.99637 0.39327 1.6124-0.11214 0.7335-1.0329 1.9148-1.0329 1.9148l1.3082-0.3417s-0.38598-1.0524-0.27529-1.5731c0.18069-0.84998 0.61915-2.4002 1.4551-2.163 0.64367 0.18265 0.25051 1.359 0.0787 2.0057-0.19054 0.71714-1.2585 1.7304-1.2585 1.7304l1.6518-0.35395s-0.17935-1.0419-0.0393-1.5338c0.26187-0.91969 0.65941-2.6811 1.5731-2.399 0.67651 0.20886 0.18966 1.4537-0.0393 2.1237-0.24842 0.72692-1.4945 1.809-1.4945 1.809l2.0844-0.51125s-0.35476-0.98059-0.16714-1.4649c0.35799-0.9242 1.4173-2.4131 2.2515-1.8779 0.64504 0.41389-0.0913 1.6006-0.51126 2.2417-0.3391 0.51758-1.5731 1.1012-1.5731 1.1012l2.3913-0.18648-2.3913 0.18648-6.7644 1.7304-2.9888 1.2192-3.3429 1.8877-0.22599 0.62924 2.0352 1.8877-2.5268-1.4944-0.34412 0.62924-2.517 6.371 0.31462 8.2981 3.3822 0.51126-3.3035 0.19663-0.60824 2.8131c-0.50947 0.25122-1.6296 1.0935-1.6296 1.0935l-1.2038 8.8747s0.82633 2.1512 1.8067 2.1524c0.82348 9.6e-4 0.27176-1.5902 0.93053-1.7068 0.53232-0.0942 0.36141 1.3412 0.68459 0.87394 2.3872-3.4518 1.8138-11.985 0.45893-11.592l-1.0474 0.30409s-0.71947 0.38187-1.6296 1.0935c-0.26768 1.9734-1.0242 5.8651-1.2034 8.8747 0.295 0.64643 1.1107 2.0307 1.8063 2.1524-0.17595 3.8243-0.18153 8.0333 0.0718 10.879 0.0418 0.46876-1.9784 0.41453-2.2942 0.18076-0.41809-3.0498-0.0345-6.5356 0.10148-9.0831l0.31461-4.1294s-0.52799-0.70658-0.81604-0.59975c-0.4339 0.16093-0.0907 1.2615-0.52109 1.0913-1.7208-0.68021-2.8207-2.396-3.3625-4.0704-0.62415-1.9289-2.352-5.0691-0.868-6.8636 0.36121-0.43676 1.6152 0.0903 1.6152 0.0903s2.2691 2.2721 3.2052 3.5682c0.46411 0.64259 0.92086 1.871 1.2807 2.0803 0.19821 0.11532 0.17275-1.0513 0.17275-1.0513l-1.65-2.1892s0.69422-0.81345 0.91202-1.2942c0.18674-0.41216 0.71703-1.105 0.31864-1.3196-0.42314-0.22789-0.77323 0.62194-0.984 1.0539-0.23085 0.47309-0.24666 1.5598-0.24666 1.5598l-1.5928-1.3175s0.73519-0.65314 0.92423-1.0905c0.3233-0.74806 1.0189-2.0958 0.27529-2.4292-0.53789-0.24124-0.96684 0.76777-1.1798 1.3175-0.26523 0.68456-0.0197 2.2023-0.0197 2.2023l-1.4158-1.0905s0.68388-0.92061 0.76688-1.4657c0.0882-0.57958 0.25981-1.6132-0.31461-1.7304-0.63056-0.12864-0.99281 0.97259-1.0618 1.6124-0.0607 0.5624 0.60957 1.5837 0.60957 1.5837l-2.2023-1.3281s0.90861-0.94434 1.0028-1.5534c0.08-0.51698 0.10114-1.4172-0.41294-1.5141-0.56167-0.10589-0.91219 0.81564-1.0225 1.3765-0.11231 0.5709 0.4326 1.6911 0.4326 1.6911l-1.8877-0.98318s0.84191-0.95906 0.88486-1.5534c0.0375-0.5196-0.0498-1.433-0.57024-1.4551-0.56231-0.0239-0.69757 0.95348-0.74722 1.5141-0.0457 0.51657 0.4326 1.4944 0.4326 1.4944l-1.5141-0.82588s0.60814-0.84499 0.55058-1.3175c-0.0612-0.50231-0.40095-1.2688-0.90453-1.2192-0.53397 0.0526-0.76997 0.92482-0.68823 1.4551 0.0749 0.4859 1.0028 1.0815 1.0028 1.0815s-1.5949-1.2519-2.0254-1.6517c-0.11942-0.11091 0.22827 0.10123 0.3746 0.173 0.58692 0.28788 0.99295 0.97158 1.6508 1.4787 0.64877 0.50019 1.5534 0.82588 1.5534 0.82588l4.09 2.3113 3.0086 2.408 1.6484 2.1952 1.0782-6.7571 0.0261-0.67219-1.0289-0.22247 1.0081-0.1738 0.0739-9.5102c-2.116-1.4532-0.69933-0.48029-3.8085-2.6157l-1.062-0.17698-0.29478-1.6517-1.0423-0.86521s0.0908 0.8833 0.27529 1.2781c0.23921 0.51197 1.0618 1.2388 1.0618 1.2388l-1.3174-0.11798s0.14631-0.79756-0.11336-1.3133c-0.30815-0.61201-0.66621-1.3192-1.2674-1.6593-0.51622-0.29206-0.15198 1.1489 0.12234 1.6748 0.29204 0.55982 1.2584 1.2978 1.2584 1.2978l-1.4354-0.0393s0.10809-1.3113-0.17697-1.868c-0.28579-0.55817-0.85182-1.513-1.4158-1.2388-0.55489 0.26979-0.0913 0.82084 0.17702 1.3765 0.2968 0.61468 1.4157 1.7304 1.4157 1.7304h-1.3174s0.12121-1.2183-0.0983-1.7304c-0.28489-0.6646-0.91065-1.8453-1.5534-1.5141-0.64853 0.33415-0.0272 1.5293 0.33428 2.163 0.28152 0.49352 1.3175 1.0815 1.3175 1.0815s-1.0311-0.57899-1.3175-1.0815c-0.23588-0.41397-0.39965-0.85551-0.56609-1.2694-0.15172-0.37723-0.68965-0.46147-0.88902-0.1071-0.28782 0.51158 0.48868 1.0834 0.8652 1.5338 0.34936 0.41785 1.9074 0.92419 1.9074 0.92419l-1.5338 0.41294s-0.0337-0.8322-0.25563-1.1602c-0.20888-0.30865-0.59169-0.79758-0.92419-0.62923-0.32768 0.1659-0.23295 0.78907-0.0393 1.1012 0.64102 1.0331 1.2191 0.68823 1.2191 0.68823l1.5338-0.41294 2.7528 0.0393 2.3991 0.27529-0.7472-0.98318s0.74953-0.7635 0.86519-1.2388c0.12514-0.51429 0.30989-1.516-0.21631-1.5731-0.52778-0.0573-0.43798 0.97563-0.55058 1.4944-0.0934 0.43036-0.0983 1.3175-0.0983 1.3175l-0.62923-0.82587s0.51408-1.1242 0.45226-1.7107c-0.0639-0.60636-0.22581-1.7402-0.82587-1.6321-0.51932 0.0935-0.22151 1.0473-0.17698 1.5731 0.0558 0.65939 0.55059 1.7697 0.55059 1.7697l-1.0423-0.86521s0.40315-1.2611 0.37582-1.4402c-0.0148-0.0972 0.015-1.9841-0.65097-1.9222-0.52395 0.0487-0.34861 1.0072-0.31887 1.5326 0.0387 0.68322 0.59402 1.8299 0.59402 1.8299l-0.86506-0.39327s0.3339-1.4582 0.21965-2.1825c-0.10827-0.68645-0.13563-2.2493-0.82842-2.1947-0.65971 0.052-0.61537 1.2488-0.55059 1.9074 0.0852 0.86649 1.238 2.4896 1.1594 2.4699-0.0786-0.0197-1.1208-0.74722-1.1208-0.74722s0.15137-1.3675-0.11798-1.9664c-0.31179-0.69321-0.93729-1.9616-1.6124-1.6124-0.69104 0.35743 0.0383 1.6083 0.39327 2.3006 0.29393 0.5733 1.3371 1.2781 1.3371 1.2781l-1.061-0.79636s-0.44682-0.81017-0.6689-1.2613c-0.22143-0.44978-0.78281-0.98547-1.1606-0.65595-0.25933 0.22616 0.12705 0.6947 0.31462 0.98318 0.34923 0.53712 1.5149 0.93404 1.5149 0.93404l2.1818 1.5436s1.6723 0.883 1.6919 1.0796l1.5722 2.0076 3.8085 2.6157s0.45145-0.45593 0.6158-0.72797c1.0203-1.6888 1.6439-3.5935 2.222-5.4862-0.27509-2.4947-0.88487-8.0228-0.88487-8.0228l-4.0114-0.11798 3.8117-0.50827-2.2779-0.86819s0.3632-0.78201 0.29496-1.1995c-0.0778-0.47592-0.27743-1.3477-0.74722-1.2388-0.51278 0.11884-0.27071 1.0638-0.13765 1.5731 0.0882 0.33772 0.58991 0.8652 0.58991 0.8652l-0.90453-0.13764s0.2919-1.2814 0.0234-1.853c-0.20297-0.43211-0.77812-1.2548-1.2033-1.0376-0.54897 0.28042 0.0232 1.2662 0.27529 1.8287 0.20555 0.45875 0.90458 1.0618 0.90458 1.0618l-1.1504-0.0246s0.0936-0.98168-0.0609-1.5173c-0.17128-0.5939-0.35459-1.6654-0.95179-1.506-0.59062 0.15765-0.31315 1.2432-0.13764 1.8287 0.18783 0.62666 1.1503 1.1946 1.1503 1.1946l-1.288 0.0197s0.22065-1.0926 9e-3 -1.6931c-0.18963-0.53859-0.54318-1.4725-1.0907-1.3106-0.53427 0.15798-0.37752 1.2306-0.23156 1.7683 0.17942 0.66093 1.313 1.2353 1.313 1.2353l-1.1983 0.0893s0.0155-1.2904-0.23716-1.6182c-0.13409-0.17422-1.0215-1.4583-1.5141-1.0815-0.53866 0.41201 0.30876 1.3591 0.70789 1.9074 0.25545 0.35091 1.0434 0.79231 1.0434 0.79231s-1.1949 0.25345-1.5977 0.0172c-0.46558-0.27306-0.19778-1.0553-0.48781-1.3601-0.0607-0.0637-0.88264-0.87944-1.1995-0.57025-0.42629 0.416 0.2915 1.2263 0.72756 1.6321 0.296 0.27543 0.56279 0.13575 0.95974 0.29823 0.59957 0.24541 1.2434-0.0427 2.1374-0.0574 1.184-0.0195 2.5952-0.13554 3.7374 0.0533 1.7282 0.28569 2.8605 1.5995 3.0512 0.46642 0.51512-3.0616 1.0336-5.7704 1.4371-8.9022-0.391-0.86124-2.3366-2.3158-2.3366-2.3158l2.3803 1.6732 0.54963-2.5616 0.62924-1.2192c-0.67799 0.69453-4.6768-0.18084-6.9042-0.0919-15.561 0.6216-26.868 22.603-26.932 38.176-0.07774 18.875 34.868 27.844 32.26 46.538-0.4006 2.8714-4.4327 7.0983-4.4327 7.0983-1.7318-0.8458-10.314 4.2706-4.46 4.2322 4.1543-0.0273-3.5561-5.528-5.1524-5.0185-1.5937 0.50871-2.4193 2.9755-2.0116 4.5979 0.41568 1.654 3.7929 1.4712 4.0232 3.161 0.172 1.2625-2.642 10.195 2.8203 6.4888 0.68996-0.46814-5.7897-2.0163-6.4124-1.6036-0.86184 0.57115-2.3765-0.0929-3.0174 0.71842-0.77185 0.9772 0.98962 2.9799 0 3.7358-0.86795 0.66294-2.5196 0.0219-3.1611-0.86211-1.7179-2.3675 2.011-6.303 0.43105-8.7647-0.69654-1.0853-2.3046-1.5099-3.5921-1.4368-1.412 0.0802-2.3324 1.836-3.7358 2.0116-1.9595 0.24519-3.8278-1.9003-5.7474-1.4368-1.4847 0.3585 4.0891 10.351 5.5474 9.8965 10.95-3.4106-1.7365-7.7598-9.4733-9.4712-2.4961-0.55216-4.477-0.82975-4.9825-0.71266-2.3297 0.53957-4.1996 3.6649-3.8795 6.0347 0.24973 1.8486 12.678 9.1201 12.237 7.3077-2.4486-10.05-10.626-2.4266-11.231-1.2729-0.91262 1.7394-1.4935 4.464-0.14368 5.8911 1.0537 1.114 4.0333-1.282 4.5979 0.14368 0.88964 2.2464-8.9291 16.976 1.6467 9.0149 7.3889-5.5621-10.545-1.8074-10.699 0.0372-0.14471 1.7316 1.7365 11.003 4.0007 8.9017 3.0201-2.8034 6.6327-1.1745 6.4989 0.55136-0.21723 2.8027-10.646 2.263-10.356 5.0591 0.27871 2.6833 23.061 9.9117 9.8022-0.59763-2.4504-1.9422 0.99809 9.9434 3.7042 9.6497 3.1656-0.34357 6.5844-3.7128 6.6095-6.8969 0.0072-0.915-1.8848-1.0967-1.8679-2.0116 0.01254-0.67722 1.5665-0.68518 1.5774-1.3624 0.0032-0.20106 0.02563-0.63683 0.05023-0.91375 0 0 3.096-3.1479 8.8434-3.3994 4.0622 0.2275 5.7619-0.23966 8.8277 0.54925l1.8928 1.2542c-1.0083-0.66809-0.66204-0.43867-1.8928-1.2542-1.31-0.86803 4.2772 0.0242 3.8345-1.4832-1.0607-3.6121-8.942-0.44398-10.633-3.8076-0.64638-1.286-0.0698-3.5736 1.2572-4.1309 2.7009-1.1344 15.535 3.9977 7.7949 4.0591-9.0521 0.0719 1.266-4.0766 3.0174-4.7416 0.81493-0.30943 2.1635-0.0795 2.5145 0.71842 0.2803 0.6372-1.178 1.216-0.93395 1.8679 0.15438 0.4123 0.80779 0.65401 1.2213 0.5029 0.6338-0.2316 0.3031-1.5565 0.93395-1.7961 1.9417-0.73725 0.36183 7.4531 0.20655 7.0446-2.5788-6.7836 4.7312-2.2685 4.2477-1.0099-0.36201 0.94235-0.22808 2.3894-1.1495 2.8018-0.78713 0.35234-1.6191-1.1286-2.4393-0.86211-2.2116 0.7187-1.6947 5.1992-3.9546 5.7474-0.72063 0.17479-3.1131-3.4865-4.0251-3.6566 0 0 3.6122 7.4769 4.3199 9.4293 1.7558 4.8437 0.16714 4.2873-0.1855 6.5288-0.31713 2.0158 4.1094 18.616 1.0694 14.22-0.9993-1.445 0.54961-5.7166 0.66099-6.0538 2.9238-8.8512-5.1418 1.996-5.388 3.4669 0.51431 4.7238 1.1665 9.3289 1.2192 14.021l-4.1e-5 3e-5c-0.13751 0.83542 0.0036 2.5546 0.0036 2.5546 1.7347 0.57392 5.6256 0.53875 8.5949-0.75053l-1.3848-3.6329c-0.6645-2.0579-6.1568-9.1981-5.7076-7.0582 3.41 16.245 6.3791-7.1469 7.0792-10.773l-0.0254-2.921c-0.0381-1.4732 0.0489-2.1238 3.1732-3.8764-1.7223-4.2344 1.2307-6.0558 2.1916-7.5735 1.7691-2.0116 3.1872-2.3819 3.1872-2.3819 2.5728-1.145 2.7555-0.0572 2.7555-0.0572-0.30531 1.8499 0.0463 1.7224 0.0463 1.7224 1.4224 0.8509 5.6388-2.6416 5.6388-2.6416s1.4775-1.0582 1.9843-1.5635c0.9308-0.92803 2.2198-3.259 2.2198-3.259-0.62758 0.9214-1.2724 1.8556-1.6133 2.8076-0.31234 0.87219 1.0339 1.5763 1.27 2.4721 0.21163 0.80301-0.42515 1.8472 0.1016 2.4892 0.77666 0.9465 2.3899 1.1892 3.5702 0.8636 0.8625-0.23797 1.0227-1.9258 1.9162-1.8796 1.4713 0.076 1.3462 3.4029 2.8194 3.4036 1.1003 5.3e-4 2.2251-1.4459 2.1082-2.54-0.18287-1.712-3.7602-1.4934-4.064-3.1881-0.21125-1.1784 2.1639-1.8974 1.8796-3.0603-0.21106-0.86321-1.4033-1.474-2.286-1.3716-0.84455 0.0979-0.99248 1.6249-1.8288 1.778-1.5069 0.27583-2.3851-2.0235-3.8731-1.7745 0 0-0.28922-1.4969-0.1655-1.8577 0.43647-1.2726 0.77043-2.0778 2.6162-3.0734 1.2549-0.6769 2.3364-1.4763 3.106-3.0734 0.12304-0.25533 1.9238-1.7157 1.382-1.7936-0.17201-0.0247-1.6207-0.86769-1.3424-0.72056 0.28039 0.14824 1.237 0.83436 1.3424 0.72056 1.3525 0.33036 3.0471-0.11761 3.9258 0.83503 1.1432 1.2393 1.7787 3.4586 1.0058 4.9571-0.54058 1.0481-2.757 0.35786-3.2329 1.4368-0.61123 1.3858 0.0376 3.7309 1.4368 4.3105 0.98944 0.40984 1.8358-1.701 2.8737-1.4368 0.9335 0.2376 1.365 2.3708 1.6524 2.3708 0.28736 0 4.8747-1.6216 5.2445-3.7358 0.26094-1.4919-2.0713-2.3115-2.5863-3.7358-0.64583-1.7861-1.1972-3.9077-0.5029-5.6755 1.2026-3.0617 7.2242-3.3217 7.3279-6.6095 0.0468-1.4846-14.586-7.0307-10.479-1.6748 8.4423 11.008 1.03-4.8468 1.283-7.7365 0.11826-1.3506 3.2758-1.0154 3.3047-2.3708 0.0571-2.6773-3.6482-5.1045-6.3221-4.9571-1.6401 0.0904-1.8778 3.4286-3.5203 3.4484-0.98265 0.0119-1.1771-1.917-2.1553-2.0116-4.5239-0.43766-2.8918 22.543 3.2501 10.395 1.4099-2.7886-9.3758 0.49085-8.0635 3.3267 0.64489 1.3936 9.6924 10.739 7.7949 3.9034-1.171-4.2184-5.0796 3.1962-3.58 4.2397 0 0-1.1764 2.5434-2.6009 3.3437-1.2614 0.70869-2.8469 1.9903-3.7536 3.1178-1.2701 1.5794-1.7441 4.8411-1.7441 4.8411-0.42838 1.029-1.352 1.2498-2.2679 1.6085-0.0438 0.0171 0.0398-0.63098-0.14793-0.59478-0.3288 0.0635-0.73435 0.0878-0.73435 0.0878 0.31114-0.018 0.47427-0.0177 0.73435-0.0878 0.41453-0.11166 0.79237-0.33059 1.0188-0.63272 1.2976-1.7313-1.3278-4.3778-0.7112-6.4516 0.69176-2.3268 5.0411-3.2357 4.6228-5.6268v4e-5c0-1.7262-11.815 0.93512-6.4964 4.0205 1.4011 0.81273-0.26267-9.1501-1.6316-8.8561-1.414 0.30365-2.2453 2.1281-2.4892 3.5536-0.12748 0.74513 0.7022 1.4341 0.6096 2.1844-0.1886 1.5279-2.8197 2.5691-2.286 4.0132 0.39921 1.0802 2.3592 0.4401 3.2512 1.1684 0.47959 0.39156 1.1284 0.98968 0.9652 1.5869-0.11134 0.40749-0.94873 0.21027-1.1176 0.59747-0.39899 0.91484-0.1094 2.409 0.76201 2.8956 0.47899 0.26748 1.1051-0.76184 1.5748-0.47837 0.53763 0.32446-0.16156 1.4938 0.3556 1.85 0.21618 0.14889 0.48174 0.0414 0.83764 0.26327 0 0-0.0976 0.90796-0.27249 1.0047-1.3381 0.73991-3.8951 1.8244-3.8951 1.8244l-3.5271 1.4014c-1.787 0.71004-4.6429 4.7503-4.6429 4.7503 1.132-1.3524 3.2008-4.0185 4.6429-4.7503 0.66415-0.337 2.6688-1.1814 3.2724-0.6723 0.67032 0.56542-0.60423 1.7561 0.23193 2.0204 1.9817 0.62646 3.6538-1.9524 5.715-2.1971 0.75519-0.0897 1.7694-0.64039 2.159 0.0127 0.48032 0.80508-1.9386 9.218-8.577 7.1825-0.64473-0.1977 9.3132-4.1592 9.5422-3.5249 0.30966 0.8577-1.4218 1.7234-1.016 2.54 0.39853 0.802 1.9111 0.12812 2.5908 0.7112 1.6051 1.3769-6.9786 4.8965-6.3389 2.8808 1.6285-5.1309 5.0526 7.0362 2.4781 7.1776-2.3159 0.12724-16.034-7.5934-9.8413-5.2665 12.193 4.5812-4.3637 0.95943-5.2245-2.3159-0.31363-1.405-0.13069-2.425 0.36532-3.7983 0 0-1.3191-2.8118-2.2172-3.4224 0 0-2.1373-2.1463-2.6222-3.2239-0.41309-1.1854-2.038-3.4795-2.3077-3.6232-0.13093 0.36604-0.35999 1.0427-0.55809 1.6042 0.72242 0.32422 1.2727 2.1449 1.393 2.3413 1.5014 2.4519 4.2402 4.3999 4.5997 7.3861 0.011 0.93345-0.65074 1.0526-1.1851 1.242-0.77067 0.27329-1.5233 0.25397-1.6864-0.65496-0.26103-1.4544-2.065-5.4712-3.9835-8.7678-0.55678 0.53883-1.0694 0.7765-1.6732 0.0357-0.5279-0.64763-1.7531-2.0336-2.4983-2.6997-1.1845-1.0587-2.2898-1.6331-2.6967-1.9936 0.67459-0.31496 3.1722-0.20871 3.6982-0.65824-0.12022-0.16649-0.36538-0.50324-0.48252-0.65561-0.6642-0.86393-1.9136-1.2087-2.0864-1.3865-0.10959-0.11275-0.25481-0.39697-0.25481-0.39697-2.1336-0.42545-8.6278 0.83645-7.815-3.761l-3.5847-2.7754s-2.0429-1.9101-2.3349-3.197c-0.20215-0.89089-0.03168-1.9533 0.5029-2.6941 1.0569-1.4646 4.5941-2.2164 5.2691-3.4092-0.27475-0.44382-0.36915-0.59385-0.81412-1.3037-0.48197 1.261-2.02 1.5852-2.9822 2.0548 0 0-3.2948 1.4767-3.4484 2.9904-0.03698 0.36435-0.48351 0.57848-1.0327-0.23348-0.55539-0.82106-0.5067-1.9931-0.73312-2.882-0.82047 0.26875-0.82047 0.26875-1.3386 0.41763 0.03767 0.28169 0.19744 1.4541 0.31676 2.0328 0.07359 0.35696 0.23481 0.46022-0.4699 0.57151-0.72326 0.1142-1.1216-0.15392-2.3495 0.1778-0.53479 0.14448-1.0366 0.1355-1.5754-0.52904 0 0-0.57149 1.3314-0.55045 1.8023 0.43138 0.82778 3.8362-0.52652 5.452 0.0524 0.43456 0.15569 0.89804 0.88011 1.0058 0.95191 0.10778 0.0718-0.91745-0.20966-1.383-0.19756-0.68311 0.0178-1.3656 0.1722-2.0116 0.39513-1.038 0.35823-2.936 1.4939-2.936 1.4939l0.57327 0.63002c2.3244-1.2647 4.1921-1.6616 5.8664-0.84118 0.91893 0.4503 1.2089 1.9672 2.1249 2.4432 0.84414 0.1796 4.826 3.1588 6.3246 5.902 0.17145 0.43815 1.778 1.4732-1.2192 1.2192-3.4754-9e-3 -7.7756 2.7305-7.7756 2.7305l-2.1271 1.4224 0.58089 0.73821-0.58089-0.73821c-0.47215-0.5666-0.91962-0.6414-1.7652-0.7214-1.2971-0.12279-1.8582 2.2888-3.1611 2.299-1.5812 0.0123-3.3749-1.2314-3.8795-2.73-0.35283-1.0479-0.05342-2.8437 1.0058-3.161 1.2396-0.37141 1.7233 2.4386 3.0174 2.4426 0.92002 3e-3 2.19-0.80484 2.1553-1.7242-0.08982-2.3762-6.0208-1.6488-5.8911-4.0232 0.08888-1.626 2.6822-2.2776 4.3105-2.299 1.285-0.0169 2.1828 1.9472 3.4484 1.7242 1.2345-0.21749 2.8231-1.499 2.5863-2.73-0.38854-2.0202-4.8348-0.70695-5.7132-2.5673-0.88782-1.8804 0.18451-4.5917 1.6631-6.0538 0.84248-0.8331 2.3772-0.41724 3.4754-0.8621 0.97458-0.39479 2.5726-0.54088 2.73-1.5805 0.12687-0.83779-1.6734-1.0221-1.7242-1.8679-0.06373-1.0615 0.85232-2.2709 1.8679-2.5863 1.3599-0.42238 2.8471 0.63391 4.0232 1.4368 2.4112 1.6462 3.0969 5.3851 5.7474 6.6095 2.1277 0.98283 13.299-7.7782 6.5301-8.0127-11.525-0.39908 5.827 9.8938 7.2636 8.1564 2.9268-3.5399-3.8674-9.0562-2.73-13.506 0.29459-1.1526 2.5737-1.5725 2.299-2.73-0.16845-0.7098-1.5705-0.28102-2.0116-0.86211-0.43818-0.57732-0.73838-1.5879-0.28737-2.1553 0.62871-0.79089 2.382 0.49822 3.0174-0.28737 1.3038-1.6121 0.6886-5.3674-1.0202-6.5416" fill="none" stroke="#000" stroke-width=".52917"/></g></svg>
